<?xml version="1.0" ?><svg style="enable-background:new 0 0 24 24;" version="1.1" viewBox="0 0 24 24" xml:space="preserve" xmlns="http://www.w3.org/2000/svg" xmlns:xlink="http://www.w3.org/1999/xlink"><style type="text/css">
	.st0{opacity:0.2;fill:none;stroke:#000000;stroke-width:5.000000e-02;stroke-miterlimit:10;}
</style><g id="Layer_1"/><g id="Layer_2"><path d="M13,16c0.6,0.3,1.4,0.2,1.9-0.2l5.2-4.3c0.5-0.4,0.8-1.1,0.8-1.7S20.7,8.4,20.2,8l-5.2-4.3c-0.5-0.4-1.3-0.5-1.9-0.2   c-0.6,0.3-1,0.9-1,1.6v1.1h-1.4C6.4,6.3,3,9.6,3,13.7v4.4c0,0.8,0.5,1.5,1.3,1.7c0.2,0,0.3,0.1,0.5,0.1c0.6,0,1.2-0.3,1.5-0.9   l1.7-3c0.8-1.4,2.3-2.4,3.9-2.7v1C12,15.1,12.4,15.7,13,16z M6.4,15L5,17.3v-3.6c0-3,2.5-5.5,5.7-5.5H13c0.6,0,1-0.4,1-1V5.6l4.9,4   C19,9.6,19,9.7,19,9.8s0,0.1-0.1,0.2c0,0,0,0,0,0l-4.9,4v-1.7c0-0.6-0.4-1-1-1C10.3,11.3,7.7,12.7,6.4,15z"/></g></svg>